HIERARCHY
ROOT Hips
{
  OFFSET 8.91173 92.5249 -21.9562
  CHANNELS 6 Xposition Yposition Zposition Zrotation Xrotation Yrotation
  JOINT Spine
  {
    OFFSET 0 14.0932 -1.51142
    CHANNELS 6 Xposition Yposition Zposition Zrotation Xrotation Yrotation
    JOINT Spine1
    {
      OFFSET 0 8.6966 0
      CHANNELS 6 Xposition Yposition Zposition Zrotation Xrotation Yrotation
      JOINT Spine2
      {
        OFFSET 0 8.6966 0
        CHANNELS 6 Xposition Yposition Zposition Zrotation Xrotation Yrotation
        JOINT Spine3
        {
          OFFSET 0 8.6966 0
          CHANNELS 6 Xposition Yposition Zposition Zrotation Xrotation Yrotation
          JOINT Neck
          {
            OFFSET 0 11.1813 1.11813
            CHANNELS 6 Xposition Yposition Zposition Zrotation Xrotation Yrotation
            JOINT Neck1
            {
              OFFSET 0 5.70631 0
              CHANNELS 6 Xposition Yposition Zposition Zrotation Xrotation Yrotation
              JOINT Head
              {
                OFFSET 0 5.70631 0
                CHANNELS 6 Xposition Yposition Zposition Zrotation Xrotation Yrotation
                End Site
                {
                  OFFSET 0 9.71257 0
                }
              }
            }
          }
          JOINT RightShoulder
          {
            OFFSET 0 7.98668 5.19711
            CHANNELS 6 Xposition Yposition Zposition Zrotation Xrotation Yrotation
            JOINT RightArm
            {
              OFFSET 0 18.3158 0
              CHANNELS 6 Xposition Yposition Zposition Zrotation Xrotation Yrotation
              JOINT RightForeArm
              {
                OFFSET 0 28.8742 0
                CHANNELS 6 Xposition Yposition Zposition Zrotation Xrotation Yrotation
                JOINT RightHand
                {
                  OFFSET 0 23.8772 0
                  CHANNELS 6 Xposition Yposition Zposition Zrotation Xrotation Yrotation
                  JOINT RightHandThumb1
                  {
                    OFFSET -2.41094 4.67063 3.47303
                    CHANNELS 6 Xposition Yposition Zposition Zrotation Xrotation Yrotation
                    JOINT RightHandThumb2
                    {
                      OFFSET 0 3.95207 0
                      CHANNELS 6 Xposition Yposition Zposition Zrotation Xrotation Yrotation
                      JOINT RightHandThumb3
                      {
                        OFFSET 0 2.15568 0
                        CHANNELS 6 Xposition Yposition Zposition Zrotation Xrotation Yrotation
                        End Site
                        {
                          OFFSET 0 1.91616 0
                        }
                      }
                    }
                  }
                  JOINT RightHandIndex1
                  {
                    OFFSET 0 12.455 2.51496
                    CHANNELS 6 Xposition Yposition Zposition Zrotation Xrotation Yrotation
                    JOINT RightHandIndex2
                    {
                      OFFSET 0 4.79039 0
                      CHANNELS 6 Xposition Yposition Zposition Zrotation Xrotation Yrotation
                      JOINT RightHandIndex3
                      {
                        OFFSET 0 2.63472 0
                        CHANNELS 6 Xposition Yposition Zposition Zrotation Xrotation Yrotation
                        End Site
                        {
                          OFFSET 0 1.91616 0
                        }
                      }
                    }
                  }
                  JOINT RightHandMiddle1
                  {
                    OFFSET 0 12.455 -0.0798399
                    CHANNELS 6 Xposition Yposition Zposition Zrotation Xrotation Yrotation
                    JOINT RightHandMiddle2
                    {
                      OFFSET 0 5.38919 0
                      CHANNELS 6 Xposition Yposition Zposition Zrotation Xrotation Yrotation
                      JOINT RightHandMiddle3
                      {
                        OFFSET 0 3.11376 0
                        CHANNELS 6 Xposition Yposition Zposition Zrotation Xrotation Yrotation
                        End Site
                        {
                          OFFSET 0 2.03592 0
                        }
                      }
                    }
                  }
                  JOINT RightHandRing1
                  {
                    OFFSET 0 11.0778 -2.67464
                    CHANNELS 6 Xposition Yposition Zposition Zrotation Xrotation Yrotation
                    JOINT RightHandRing2
                    {
                      OFFSET 0 4.91015 0
                      CHANNELS 6 Xposition Yposition Zposition Zrotation Xrotation Yrotation
                      JOINT RightHandRing3
                      {
                        OFFSET 0 3.11376 0
                        CHANNELS 6 Xposition Yposition Zposition Zrotation Xrotation Yrotation
                        End Site
                        {
                          OFFSET 0 2.03592 0
                        }
                      }
                    }
                  }
                  JOINT RightHandPinky1
                  {
                    OFFSET 0 9.70055 -5.26943
                    CHANNELS 6 Xposition Yposition Zposition Zrotation Xrotation Yrotation
                    JOINT RightHandPinky2
                    {
                      OFFSET 0 3.95207 0
                      CHANNELS 6 Xposition Yposition Zposition Zrotation Xrotation Yrotation
                      JOINT RightHandPinky3
                      {
                        OFFSET 0 2.15568 0
                        CHANNELS 6 Xposition Yposition Zposition Zrotation Xrotation Yrotation
                        End Site
                        {
                          OFFSET 0 1.91616 0
                        }
                      }
                    }
                  }
                }
              }
            }
          }
          JOINT LeftShoulder
          {
            OFFSET 0 7.98668 5.19711
            CHANNELS 6 Xposition Yposition Zposition Zrotation Xrotation Yrotation
            JOINT LeftArm
            {
              OFFSET 0 18.3158 0
              CHANNELS 6 Xposition Yposition Zposition Zrotation Xrotation Yrotation
              JOINT LeftForeArm
              {
                OFFSET 0 28.8742 0
                CHANNELS 6 Xposition Yposition Zposition Zrotation Xrotation Yrotation
                JOINT LeftHand
                {
                  OFFSET 0 23.8772 0
                  CHANNELS 6 Xposition Yposition Zposition Zrotation Xrotation Yrotation
                  JOINT LeftHandThumb1
                  {
                    OFFSET 2.41094 4.67063 3.47303
                    CHANNELS 6 Xposition Yposition Zposition Zrotation Xrotation Yrotation
                    JOINT LeftHandThumb2
                    {
                      OFFSET 0 3.95207 0
                      CHANNELS 6 Xposition Yposition Zposition Zrotation Xrotation Yrotation
                      JOINT LeftHandThumb3
                      {
                        OFFSET 0 2.15568 0
                        CHANNELS 6 Xposition Yposition Zposition Zrotation Xrotation Yrotation
                        End Site
                        {
                          OFFSET 0 1.6 0
                        }
                      }
                    }
                  }
                  JOINT LeftHandIndex1
                  {
                    OFFSET 0 12.455 2.51496
                    CHANNELS 6 Xposition Yposition Zposition Zrotation Xrotation Yrotation
                    JOINT LeftHandIndex2
                    {
                      OFFSET 0 4.79039 0
                      CHANNELS 6 Xposition Yposition Zposition Zrotation Xrotation Yrotation
                      JOINT LeftHandIndex3
                      {
                        OFFSET 0 2.63472 0
                        CHANNELS 6 Xposition Yposition Zposition Zrotation Xrotation Yrotation
                        End Site
                        {
                          OFFSET 0 1.91616 0
                        }
                      }
                    }
                  }
                  JOINT LeftHandMiddle1
                  {
                    OFFSET 0 12.455 -0.0798399
                    CHANNELS 6 Xposition Yposition Zposition Zrotation Xrotation Yrotation
                    JOINT LeftHandMiddle2
                    {
                      OFFSET 0 5.38919 0
                      CHANNELS 6 Xposition Yposition Zposition Zrotation Xrotation Yrotation
                      JOINT LeftHandMiddle3
                      {
                        OFFSET 0 3.11376 0
                        CHANNELS 6 Xposition Yposition Zposition Zrotation Xrotation Yrotation
                        End Site
                        {
                          OFFSET 0 2.03592 0
                        }
                      }
                    }
                  }
                  JOINT LeftHandRing1
                  {
                    OFFSET 0 11.0778 -2.67464
                    CHANNELS 6 Xposition Yposition Zposition Zrotation Xrotation Yrotation
                    JOINT LeftHandRing2
                    {
                      OFFSET 0 4.91015 0
                      CHANNELS 6 Xposition Yposition Zposition Zrotation Xrotation Yrotation
                      JOINT LeftHandRing3
                      {
                        OFFSET 0 3.11376 0
                        CHANNELS 6 Xposition Yposition Zposition Zrotation Xrotation Yrotation
                        End Site
                        {
                          OFFSET 0 2.03592 0
                        }
                      }
                    }
                  }
                  JOINT LeftHandPinky1
                  {
                    OFFSET 0 9.70055 -5.26943
                    CHANNELS 6 Xposition Yposition Zposition Zrotation Xrotation Yrotation
                    JOINT LeftHandPinky2
                    {
                      OFFSET 0 3.95207 0
                      CHANNELS 6 Xposition Yposition Zposition Zrotation Xrotation Yrotation
                      JOINT LeftHandPinky3
                      {
                        OFFSET 0 2.15568 0
                        CHANNELS 6 Xposition Yposition Zposition Zrotation Xrotation Yrotation
                        End Site
                        {
                          OFFSET 0 1.91616 0
                        }
                      }
                    }
                  }
                }
              }
            }
          }
        }
      }
    }
  }
  JOINT RightUpLeg
  {
    OFFSET -10.0656 0 0
    CHANNELS 6 Xposition Yposition Zposition Zrotation Xrotation Yrotation
    JOINT RightLeg
    {
      OFFSET 0 -42.9874 0
      CHANNELS 6 Xposition Yposition Zposition Zrotation Xrotation Yrotation
      JOINT RightFoot
      {
        OFFSET 0 -44.625 0
        CHANNELS 6 Xposition Yposition Zposition Zrotation Xrotation Yrotation
        JOINT RightForeFoot
        {
          OFFSET 0 -3.74821 0
          CHANNELS 6 Xposition Yposition Zposition Zrotation Xrotation Yrotation
          JOINT RightToeBase
          {
            OFFSET 0 0 14.6792
            CHANNELS 6 Xposition Yposition Zposition Zrotation Xrotation Yrotation
            End Site
            {
              OFFSET 0 0 10.3604
            }
          }
        }
      }
    }
  }
  JOINT LeftUpLeg
  {
    OFFSET 10.0656 0 0
    CHANNELS 6 Xposition Yposition Zposition Zrotation Xrotation Yrotation
    JOINT LeftLeg
    {
      OFFSET 0 -42.9874 0
      CHANNELS 6 Xposition Yposition Zposition Zrotation Xrotation Yrotation
      JOINT LeftFoot
      {
        OFFSET 0 -44.625 0
        CHANNELS 6 Xposition Yposition Zposition Zrotation Xrotation Yrotation
        JOINT LeftForeFoot
        {
          OFFSET 0 -3.74821 0
          CHANNELS 6 Xposition Yposition Zposition Zrotation Xrotation Yrotation
          JOINT LeftToeBase
          {
            OFFSET 0 0 14.6792
            CHANNELS 6 Xposition Yposition Zposition Zrotation Xrotation Yrotation
            End Site
            {
              OFFSET 0 0 10.6728
            }
          }
        }
      }
    }
  }
}
MOTION
Frames:	4
Frame Time:	0.00833333
-5.6386 92.043 49.4367 -8.36553 10.8168 -166.573 -3.55271e-015 14.0932 -1.51142 -9.57963 9.62143 -0.164324 0 8.6966 7.10543e-015 -2.03066 6.31415 0.864958 -1.77636e-015 8.6966 0 -1.87456 2.52222 1.02741 1.77636e-015 8.6966 0 1.6295 0.992239 -0.795677 -1.77636e-015 11.1813 1.11813 -1.62912 4.70341 -1.30633 0 5.70631 0 -0.332455 -6.01426 -8.72594 3.55271e-015 5.70631 0 0.813781 -19.9911 -0.710464 1.77636e-015 7.98668 5.19711 101.101 -14.8425 2.87715 2.84217e-014 18.3158 0 57.6287 13.3439 -24.3245 2.13163e-014 28.8742 0 -0.000664974 86.5068 6.22483 0 23.8772 -1.42109e-014 2.28621 -6.12413 -0.00119801 -2.41094 4.67063 3.47303 -15.5182 22.9417 6.17843 0 3.95207 1.42109e-014 3.31043e-031 3.18055e-015 -5.96354e-015 0 2.15568 0 1.54487e-031 3.18055e-015 -2.78299e-015 -7.10543e-015 12.455 2.51496 -14.865 0 3.97569e-016 -7.10543e-015 4.79039 1.42109e-014 -1.15865e-031 -2.38542e-015 -2.78299e-015 0 2.63472 0 -1.59028e-015 0 -2.68359e-015 0 12.455 -0.0798399 -7.07043 7.95139e-016 6.95746e-015 0 5.38919 0 -3.18055e-015 0 -6.36111e-015 0 3.11376 0 3.18055e-015 -7.95139e-016 -5.56597e-015 0 11.0778 -2.67464 6.98471 1.59028e-015 1.19271e-015 0 4.91015 0 -4.41391e-032 -1.59028e-015 -1.59028e-015 0 3.11376 0 3.18055e-015 -1.59028e-015 -1.98785e-015 0 9.70055 -5.26943 37.9337 -7.95139e-016 5.56597e-015 1.77636e-015 3.95207 0 -0 -7.95139e-016 -0 1.77636e-015 2.15568 -1.42109e-014 6.06912e-032 -4.37326e-015 7.95139e-016 1.77636e-015 7.98668 5.19711 -101.323 -13.9373 -2.76115 2.84217e-014 18.3158 0 -56.5852 4.44013 19.0393 -7.10543e-015 28.8742 0 179.994 80.7443 -172.919 -1.42109e-014 23.8772 0 0.88874 -10.873 -0.00223376 2.41094 4.67063 3.47303 6.40409 26.899 -2.90691 -1.42109e-014 3.95207 0 1.59028e-015 1.59028e-015 -7.95139e-016 0 2.15568 1.42109e-014 -1.59028e-015 -3.18055e-015 -3.97569e-016 1.42109e-014 12.455 2.51496 16.2704 3.18055e-015 4.77083e-015 0 4.79039 0 0 1.59028e-015 -0 0 2.63472 0 -1.76556e-031 -1.59028e-015 -6.36111e-015 1.42109e-014 12.455 -0.0798399 6.58258 0 5.56597e-015 0 5.38919 1.42109e-014 1.59028e-015 3.18055e-015 1.59028e-015 -1.42109e-014 3.11376 1.42109e-014 -1.21382e-031 1.59028e-015 4.37326e-015 1.42109e-014 11.0778 -2.67464 -7.54496 1.59028e-015 -9.93923e-016 0 4.91015 0 -7.95139e-016 0 -4.37326e-015 2.84217e-014 3.11376 0 -1.21382e-031 -1.59028e-015 -4.37326e-015 1.42109e-014 9.70055 -5.26943 -35.9279 -1.59028e-015 -7.95139e-015 0 3.95207 -1.42109e-014 -3.18055e-015 -4.77083e-015 5.56597e-015 0 2.15568 0 3.18055e-015 1.59028e-015 -1.59028e-015 -10.0656 1.42109e-014 0 -13.3916 -2.91215 -12.3737 0 -42.9874 0 4.64448e-016 22.9006 -3.2369e-015 -1.77636e-015 -44.625 7.10543e-015 -1.4654 -13.7699 -9.07819 0 -3.74821 -7.10543e-015 -5.96354e-016 -1.59028e-015 -0 0 0 14.6792 9.67795e-016 8.04997 1.6061e-015 10.0656 1.42109e-014 3.55271e-015 -8.31143 13.0561 16.714 0 -42.9874 -7.10543e-015 2.70905e-016 13.232 3.2673e-015 0 -44.625 0 2.33727 -9.78325 -5.66481 0 -3.74821 0 1.98785e-016 0 -0 0 0 14.6792 2.77602e-016 -2.16012 -3.18282e-015 
-5.60649 92.0296 49.3483 -8.36474 10.8154 -166.68 0 14.0932 -1.51142 -9.59459 9.58166 -0.147344 0 8.6966 0 -2.02461 6.3108 0.864272 -8.88178e-016 8.6966 7.10543e-015 -1.86305 2.54368 1.06738 1.77636e-015 8.6966 0 1.67163 0.992235 -0.79336 -8.88178e-016 11.1813 1.11813 -1.54587 4.58045 -1.29843 0 5.70631 0 -0.253964 -6.04686 -8.71637 3.55271e-015 5.70631 0 0.900046 -19.9925 -0.715479 -8.88178e-016 7.98668 5.19711 101.242 -14.7774 2.90228 0 18.3158 0 57.7417 12.7827 -25.6396 0 28.8742 7.10543e-015 -5.54743e-006 86.5112 5.87205 -7.10543e-015 23.8772 1.42109e-014 2.81258 -6.21058 8.5982e-015 -2.41094 4.67063 3.47303 -15.3341 22.6553 6.02931 -7.10543e-015 3.95207 1.42109e-014 6.36111e-015 0 -5.56597e-015 0 2.15568 -1.42109e-014 -1.59028e-015 3.18055e-015 -3.97569e-015 0 12.455 2.51496 -14.7688 2.38542e-015 -0 0 4.79039 0 -8.27607e-033 7.95139e-016 5.96354e-016 0 2.63472 0 -3.18055e-015 -1.59028e-015 7.95139e-016 7.10543e-015 12.455 -0.0798399 -6.90466 -7.95139e-016 2.18663e-015 -7.10543e-015 5.38919 0 -3.18055e-015 -7.95139e-016 1.78906e-015 7.10543e-015 3.11376 1.42109e-014 -3.18055e-015 0 -1.98785e-015 0 11.0778 -2.67464 7.27441 0 1.15295e-014 0 4.91015 0 -3.18055e-015 -2.38542e-015 -6.36111e-015 -1.42109e-014 3.11376 0 -6.36111e-015 4.77083e-015 1.19271e-015 0 9.70055 -5.26943 38.4487 4.37326e-015 2.06736e-014 0 3.95207 0 9.54166e-015 2.38542e-015 -1.59028e-015 0 2.15568 0 6.36111e-015 -1.59028e-015 -2.38542e-015 -8.88178e-016 7.98668 5.19711 -101.322 -13.9039 -2.7545 0 18.3158 0 -56.5404 4.23175 20.0418 0 28.8742 0 180 80.8238 -173.374 2.84217e-014 23.8772 1.42109e-014 -0.118379 -10.7899 -4.04725e-015 2.41094 4.67063 3.47303 6.41247 27.1874 -2.93959 1.42109e-014 3.95207 0 -1.59028e-015 4.77083e-015 -5.96354e-016 -1.42109e-014 2.15568 -1.42109e-014 -7.95139e-016 -3.18055e-015 -7.95139e-016 0 12.455 2.51496 16.6388 -1.59028e-015 3.18055e-015 -1.42109e-014 4.79039 0 -3.18055e-015 -1.59028e-015 -2.38542e-015 1.42109e-014 2.63472 0 -6.36111e-015 -1.59028e-015 -3.18055e-015 -1.42109e-014 12.455 -0.0798399 7.12946 -1.59028e-015 7.95139e-016 -1.42109e-014 5.38919 0 -4.77083e-015 -1.59028e-015 1.59028e-015 0 3.11376 -2.84217e-014 -4.41391e-032 1.59028e-015 1.59028e-015 0 11.0778 -2.67464 -7.02667 -3.18055e-015 7.95139e-016 0 4.91015 1.42109e-014 7.95139e-016 1.59028e-015 7.95139e-016 -1.42109e-014 3.11376 0 7.95139e-016 1.59028e-015 -2.18663e-015 -1.42109e-014 9.70055 -5.26943 -35.5149 -1.59028e-015 -6.36111e-015 -7.10543e-015 3.95207 0 -3.18055e-015 -3.18055e-015 -7.95139e-016 7.10543e-015 2.15568 0 -1.27222e-014 4.77083e-015 -0 -10.0656 1.42109e-014 -3.55271e-015 -13.5257 -2.83814 -12.3405 0 -42.9874 7.10543e-015 1.18138e-015 22.1545 -1.28778e-015 3.55271e-015 -44.625 7.10543e-015 -1.43702 -13.5917 -9.12342 0 -3.74821 7.10543e-015 -1.19271e-015 4.77083e-015 -0 0 0 14.6792 -1.78906e-015 8.02085 -0 10.0656 1.42109e-014 0 -8.33077 13.0966 16.6383 0 -42.9874 0 3.96276e-016 13.2127 3.26704e-015 7.10543e-015 -44.625 0 2.3297 -9.8163 -5.48773 0 -3.74821 0 0 7.95139e-016 -0 -3.55271e-015 4.44089e-016 14.6792 -1.21246e-016 -2.18311 -3.18286e-015 
-5.58227 92.0101 49.2383 -8.40026 10.8032 -166.746 0 14.0932 -1.51142 -9.63474 9.5995 -0.128299 -1.77636e-015 8.6966 0 -2.00288 6.30789 0.857898 8.88178e-016 8.6966 0 -1.85151 2.54115 1.07301 3.55271e-015 8.6966 0 1.79613 1.02353 -0.806156 1.77636e-015 11.1813 1.11813 -1.30607 4.59662 -1.40016 -1.77636e-015 5.70631 -1.42109e-014 -0.2962 -6.12153 -8.863 0 5.70631 0 0.880068 -20.0933 -0.731306 1.77636e-015 7.98668 5.19711 101.342 -14.8194 2.93713 -2.84217e-014 18.3158 7.10543e-015 58.0082 12.3993 -26.6319 0 28.8742 0 -0.0103989 86.5449 5.17258 0 23.8772 1.42109e-014 3.44534 -6.21307 -4.15164e-005 -2.41094 4.67063 3.47303 -14.7728 22.3867 5.73948 7.10543e-015 3.95207 0 -3.18055e-015 0 3.97569e-015 -7.10543e-015 2.15568 0 -3.18055e-015 1.59028e-015 3.97569e-015 0 12.455 2.51496 -14.2084 7.95139e-016 9.93923e-016 0 4.79039 1.42109e-014 1.59028e-015 -1.59028e-015 -5.76476e-015 0 2.63472 -1.42109e-014 -3.18055e-015 -1.59028e-015 9.93923e-016 -7.10543e-015 12.455 -0.0798399 -6.11151 -7.95139e-016 1.59028e-015 7.10543e-015 5.38919 1.42109e-014 -3.18055e-015 7.95139e-016 1.19271e-015 7.10543e-015 3.11376 -1.42109e-014 -2.20695e-032 -7.95139e-016 -1.59028e-015 0 11.0778 -2.67464 8.27246 -1.59028e-015 1.59028e-015 0 4.91015 0 -1.27222e-014 -7.95139e-016 1.19271e-015 7.10543e-015 3.11376 1.42109e-014 -3.18055e-015 4.77083e-015 2.38542e-015 0 9.70055 -5.26943 39.871 -1.39149e-015 3.97569e-015 1.77636e-015 3.95207 1.42109e-014 -3.18055e-015 -2.5842e-015 -1.59028e-015 0 2.15568 0 -9.10368e-032 -2.18663e-015 -2.38542e-015 1.77636e-015 7.98668 5.19711 -101.394 -13.8353 -2.75898 2.84217e-014 18.3158 0 -56.6483 3.98976 20.7788 7.10543e-015 28.8742 -1.42109e-014 179.993 80.8747 -174.192 -1.42109e-014 23.8772 1.42109e-014 -0.989217 -10.5173 -0.00631357 2.41094 4.67063 3.47303 6.53685 27.4136 -3.02057 -1.42109e-014 3.95207 0 -7.95139e-016 -1.59028e-015 -7.15625e-015 0 2.15568 1.42109e-014 -7.95139e-016 -1.59028e-015 2.18663e-015 1.42109e-014 12.455 2.51496 16.2326 -1.59028e-015 3.97569e-015 0 4.79039 0 -3.18055e-015 1.59028e-015 4.77083e-015 0 2.63472 0 1.10348e-032 1.59028e-015 -3.97569e-016 0 12.455 -0.0798399 6.46789 1.59028e-015 2.38542e-015 -1.42109e-014 5.38919 0 7.95139e-016 0 2.5842e-015 0 3.11376 0 7.95139e-016 0 2.38542e-015 1.42109e-014 11.0778 -2.67464 -7.79885 -3.18055e-015 1.78906e-015 -7.10543e-015 4.91015 0 3.18055e-015 0 4.17448e-015 0 3.11376 1.42109e-014 -3.31043e-032 1.59028e-015 1.19271e-015 0 9.70055 -5.26943 -36.5006 -9.54166e-015 6.36111e-015 1.06581e-014 3.95207 0 -6.36111e-015 0 -3.18055e-015 0 2.15568 0 3.18055e-015 1.59028e-015 -1.59028e-015 -10.0656 -1.42109e-014 -3.55271e-015 -13.684 -2.75432 -12.4344 -1.77636e-015 -42.9874 3.55271e-015 -4.83317e-016 21.4616 2.13595e-015 0 -44.625 7.10543e-015 -1.37411 -13.4709 -8.99541 0 -3.74821 0 7.95139e-016 0 -0 0 -8.88178e-016 14.6792 -1.0523e-016 8.05628 6.42451e-015 10.0656 0 0 -8.36829 13.0988 16.5128 0 -42.9874 0 1.41634e-015 13.2683 -0 0 -44.625 7.10543e-015 2.3407 -9.88284 -5.28854 -3.55271e-015 -3.74821 7.10543e-015 3.97569e-016 -7.95139e-016 -3.18055e-015 0 -4.44089e-016 14.6792 -3.18239e-016 -2.15089 -3.1828e-015 
-5.53622 91.9888 49.1678 -8.43579 10.791 -166.811 0 14.0932 -1.51142 -9.67491 9.61733 -0.109241 0 8.6966 0 -1.98115 6.30498 0.851526 2.66454e-015 8.6966 0 -1.83997 2.53862 1.07865 -1.77636e-015 8.6966 0 1.92064 1.0548 -0.819021 -8.88178e-016 11.1813 1.11813 -1.06623 4.61236 -1.50197 -1.77636e-015 5.70631 1.42109e-014 -0.338633 -6.19609 -9.0097 0 5.70631 0 0.860047 -20.194 -0.747181 -8.88178e-016 7.98668 5.19711 101.443 -14.8614 2.97207 2.84217e-014 18.3158 -7.10543e-015 58.2676 12.0114 -27.6211 0 28.8742 0 -0.0139991 86.5786 4.46628 -7.10543e-015 23.8772 0 4.07813 -6.21556 -5.53572e-005 -2.41094 4.67063 3.47303 -14.214 22.1155 5.45305 7.10543e-015 3.95207 1.42109e-014 6.36111e-015 0 7.95139e-016 7.10543e-015 2.15568 -1.42109e-014 3.18055e-015 3.18055e-015 -2.38542e-015 0 12.455 2.51496 -13.648 3.97569e-015 4.17448e-015 0 4.79039 0 -9.54166e-015 7.95139e-016 1.98785e-015 7.10543e-015 2.63472 -1.42109e-014 3.18055e-015 7.95139e-016 -1.78906e-015 0 12.455 -0.0798399 -5.31828 7.95139e-016 -7.95139e-016 -7.10543e-015 5.38919 0 3.18055e-015 -4.77083e-015 -1.59028e-015 0 3.11376 -1.42109e-014 3.18055e-015 0 -2.38542e-015 0 11.0778 -2.67464 9.27066 -7.95139e-016 -5.1684e-015 0 4.91015 0 3.18055e-015 1.59028e-015 1.59028e-015 0 3.11376 0 1.65521e-032 7.95139e-016 -1.19271e-015 0 9.70055 -5.26943 41.2937 -6.75868e-015 -1.35174e-014 0 3.95207 0 3.86217e-031 6.95746e-015 -3.18055e-015 0 2.15568 0 3.18055e-015 3.37934e-015 -3.18055e-015 -8.88178e-016 7.98668 5.19711 -101.466 -13.7667 -2.76336 0 18.3158 0 -56.7531 3.74638 21.5152 0 28.8742 0 179.991 80.9257 -175.013 0 23.8772 0 -1.85938 -10.2446 -0.00841129 2.41094 4.67063 3.47303 6.66184 27.6397 -3.10227 7.10543e-015 3.95207 -1.42109e-014 -7.95139e-016 3.18055e-015 -3.18055e-015 7.10543e-015 2.15568 -1.42109e-014 7.95139e-016 3.18055e-015 -2.98177e-015 1.42109e-014 12.455 2.51496 15.8264 0 8.74653e-015 0 4.79039 -1.42109e-014 -0 0 1.59028e-015 0 2.63472 0 -0 0 3.18055e-015 1.42109e-014 12.455 -0.0798399 5.80628 0 9.64106e-015 1.42109e-014 5.38919 0 -1.59028e-015 0 -3.08116e-015 -1.42109e-014 3.11376 0 -1.59028e-015 -1.59028e-015 -2.98177e-015 1.42109e-014 11.0778 -2.67464 -8.57109 0 6.75868e-015 0 4.91015 0 -4.77083e-015 1.59028e-015 -0 7.10543e-015 3.11376 -1.42109e-014 -1.59028e-015 4.77083e-015 -5.56597e-015 0 9.70055 -5.26943 -37.4865 3.18055e-015 -4.77083e-015 -3.55271e-015 3.95207 -1.42109e-014 -1.32417e-031 -4.77083e-015 -1.59028e-015 -7.10543e-015 2.15568 0 3.18055e-015 -3.18055e-015 -3.18055e-015 -10.0656 -1.42109e-014 -3.55271e-015 -13.8422 -2.67024 -12.528 0 -42.9874 -3.55271e-015 6.34258e-016 20.7686 2.97639e-015 0 -44.625 7.10543e-015 -1.31151 -13.35 -8.8676 0 -3.74821 -7.10543e-015 1.39149e-015 3.18055e-015 -1.59028e-015 0 -8.88178e-016 14.6792 2.95446e-015 8.09171 1.60627e-015 10.0656 -1.42109e-014 7.10543e-015 -8.40581 13.1011 16.3874 -7.10543e-015 -42.9874 7.10543e-015 3.97569e-016 13.3239 -0 -7.10543e-015 -44.625 0 2.35194 -9.94935 -5.0893 0 -3.74821 0 -5.96354e-016 0 6.36111e-015 0 4.44089e-016 14.6792 -2.79907e-016 -2.11866 3.18273e-015 
